<?xml version="1.0" standalone="no"?>
<!DOCTYPE svg PUBLIC "-//W3C//DTD SVG 20010904//EN"
 "http://www.w3.org/TR/2001/REC-SVG-20010904/DTD/svg10.dtd">
<svg version="1.0" xmlns="http://www.w3.org/2000/svg"
 width="287.000000pt" height="126.000000pt" viewBox="0 0 287.000000 126.000000"
 preserveAspectRatio="xMidYMid meet">

<g transform="translate(0.000000,126.000000) scale(0.100000,-0.100000)"
fill="#000000" stroke="none">
<path d="M546 1059 c-20 -56 -35 -104 -33 -106 2 -2 21 42 41 98 21 55 36 103
33 105 -2 3 -21 -41 -41 -97z"/>
<path d="M632 1138 c-16 -16 -15 -28 3 -28 9 0 12 6 9 15 -4 10 0 15 10 15 24
0 31 -28 12 -49 -15 -16 -15 -19 -1 -24 18 -8 20 -53 3 -60 -9 -4 -8 -6 2 -6
19 -1 40 18 40 35 0 7 -7 20 -16 29 -13 12 -14 19 -5 28 16 16 14 44 -5 51
-24 9 -39 7 -52 -6z"/>
<path d="M400 1130 c0 -5 6 -9 13 -7 8 1 13 -16 15 -55 2 -47 0 -57 -15 -61
-10 -3 2 -5 27 -5 25 0 37 2 28 5 -15 4 -18 16 -18 69 0 62 -1 64 -25 64 -14
0 -25 -4 -25 -10z"/>
<path d="M2680 1071 c0 -5 5 -11 10 -13 7 -2 4 -33 -7 -87 -17 -81 -17 -83 2
-97 26 -19 38 -18 69 7 23 18 27 27 24 68 -3 42 -5 46 -30 49 -30 4 -34 16
-18 56 9 24 8 26 -20 26 -17 0 -30 -4 -30 -9z m80 -111 c0 -46 -20 -81 -44
-78 -18 3 -20 9 -18 38 6 62 62 99 62 40z"/>
<path d="M2061 1030 c-5 -16 -17 -30 -25 -30 -9 0 -16 -4 -16 -10 0 -5 6 -10
13 -10 11 0 11 -10 3 -50 -7 -36 -7 -53 1 -61 15 -15 51 -2 64 24 11 22 11 21
-14 -1 -32 -30 -38 -19 -24 41 8 35 15 47 29 47 10 0 18 5 18 10 0 6 -7 10
-15 10 -11 0 -13 8 -8 30 3 18 1 30 -5 30 -5 0 -15 -13 -21 -30z"/>
<path d="M622 1023 c2 -9 8 -18 15 -20 7 -3 9 3 6 16 -6 25 -26 28 -21 4z"/>
<path d="M2462 998 l-2 -48 -52 -2 -53 -1 50 -6 50 -6 6 -50 6 -50 1 52 2 52
53 4 52 3 -52 2 -52 2 -4 48 -3 47 -2 -47z"/>
<path d="M319 1000 c-6 -17 -18 -30 -27 -30 -16 -1 -16 -1 -1 -10 14 -8 15
-16 6 -54 -11 -49 -5 -76 18 -76 17 0 59 39 51 47 -3 3 -14 -5 -25 -18 -27
-34 -35 -18 -21 41 9 36 19 54 34 60 18 7 18 9 3 9 -15 1 -17 6 -12 31 4 20 3
30 -5 30 -6 0 -16 -13 -21 -30z"/>
<path d="M1880 972 c-33 -34 -39 -72 -14 -96 17 -18 32 -20 53 -7 9 6 21 5 33
-2 16 -10 22 -9 34 7 8 11 14 25 14 30 0 6 -7 2 -15 -8 -22 -29 -27 -14 -14
38 6 26 10 49 7 51 -2 3 -19 8 -36 11 -26 5 -36 1 -62 -24z m63 -28 c-3 -45
-36 -85 -54 -67 -15 15 -4 77 18 98 24 24 38 12 36 -31z"/>
<path d="M1598 963 c28 -2 76 -2 105 0 28 2 5 3 -53 3 -58 0 -81 -1 -52 -3z"/>
<path d="M2140 926 c-14 -44 -5 -93 21 -106 29 -16 57 4 65 47 9 47 -12 87
-48 91 -22 3 -28 -2 -38 -32z m64 -3 c8 -39 -7 -98 -24 -98 -17 0 -29 50 -22
94 6 41 38 43 46 4z"/>
<path d="M1598 903 c28 -2 76 -2 105 0 28 2 5 3 -53 3 -58 0 -81 -1 -52 -3z"/>
<path d="M399 853 c-12 -32 -6 -88 12 -109 15 -18 43 -18 59 1 18 21 18 98 1
118 -22 27 -60 21 -72 -10z m61 -43 c0 -45 -4 -62 -15 -67 -21 -7 -25 -2 -32
40 -8 51 3 87 27 87 18 0 20 -7 20 -60z"/>
<path d="M1156 554 c-9 -26 -14 -49 -12 -51 2 -2 11 17 20 43 9 26 14 49 12
51 -2 2 -11 -17 -20 -43z"/>
<path d="M1030 560 c11 -11 20 -24 20 -29 0 -4 -9 -20 -20 -34 -30 -38 -24
-45 10 -12 43 41 37 95 -12 95 -17 0 -17 -1 2 -20z"/>
<path d="M1223 573 c-15 -6 -17 -33 -3 -33 6 0 10 7 10 15 0 8 7 15 15 15 18
0 21 -46 3 -54 -9 -3 -8 -8 5 -16 20 -13 22 -40 5 -59 -11 -11 -10 -13 1 -9
26 8 37 36 23 58 -9 15 -10 26 -2 41 19 34 -15 59 -57 42z"/>
<path d="M987 556 c-3 -8 -2 -18 4 -22 16 -9 22 2 11 21 -8 15 -10 16 -15 1z"/>
<path d="M550 499 c0 -3 -25 -72 -55 -154 -30 -82 -52 -151 -50 -153 6 -7 25
40 74 182 23 66 39 121 36 124 -3 3 -5 3 -5 1z"/>
<path d="M657 482 c-61 -67 -61 -203 -1 -269 l25 -28 -22 44 c-31 61 -31 169
0 229 23 46 23 52 -2 24z"/>
<path d="M1381 456 c27 -62 28 -157 3 -212 -27 -59 -27 -61 0 -31 60 65 60
198 1 264 l-25 28 21 -49z"/>
<path d="M1116 444 c-9 -26 -14 -49 -12 -51 2 -2 11 17 20 43 9 26 14 49 12
51 -2 2 -11 -17 -20 -43z"/>
<path d="M328 466 c-16 -5 -28 -14 -28 -19 0 -5 7 -7 15 -3 13 4 15 -8 15 -79
0 -71 -3 -84 -17 -88 -10 -3 7 -5 37 -5 36 0 48 2 35 7 -17 7 -21 20 -25 102
l-5 95 -27 -10z"/>
<path d="M746 467 c-10 -7 -17 -21 -15 -31 5 -22 25 -16 22 7 -2 12 4 17 22
17 21 0 25 -5 25 -30 0 -19 -7 -34 -19 -42 -19 -12 -19 -12 2 -23 12 -6 23
-22 25 -36 6 -49 -52 -76 -60 -28 -4 27 -23 24 -23 -3 0 -16 9 -26 28 -32 60
-22 113 48 72 94 -16 17 -16 21 -1 42 20 29 20 34 -4 58 -23 23 -49 26 -74 7z"/>
<path d="M1060 460 c0 -9 -10 -11 -35 -7 -26 4 -35 2 -35 -9 0 -20 69 -19 77
1 3 9 3 19 -1 22 -3 4 -6 0 -6 -7z"/>
<path d="M1200 461 c0 -5 7 -14 15 -21 13 -10 15 -9 15 9 0 12 -6 21 -15 21
-8 0 -15 -4 -15 -9z"/>
<path d="M917 453 c-4 -3 -7 -15 -7 -25 0 -10 -10 -23 -22 -28 -19 -7 -20 -9
-4 -9 12 -1 16 -6 12 -17 -16 -42 -19 -96 -5 -105 8 -5 17 -9 20 -9 11 0 50
42 44 48 -3 3 -13 -4 -21 -17 -25 -35 -37 -12 -23 43 8 32 19 50 32 55 18 7
18 8 3 14 -12 5 -15 13 -10 32 6 23 -4 33 -19 18z"/>
<path d="M1880 402 c-31 -32 -37 -60 -20 -93 11 -20 54 -26 65 -9 4 6 13 5 25
-2 22 -14 50 4 49 31 0 11 -3 10 -11 -6 -6 -13 -15 -23 -21 -23 -5 0 -7 10 -4
23 18 71 19 97 6 97 -8 0 -24 3 -36 6 -16 5 -30 -2 -53 -24z m67 2 c9 -23 -15
-91 -34 -98 -25 -10 -36 9 -29 48 10 54 49 85 63 50z"/>
<path d="M1598 403 c28 -2 76 -2 105 0 28 2 5 3 -53 3 -58 0 -81 -1 -52 -3z"/>
<path d="M1550 340 c0 -6 40 -10 100 -10 60 0 100 4 100 10 0 6 -40 10 -100
10 -60 0 -100 -4 -100 -10z"/>
<path d="M1000 300 c-31 -31 -23 -130 11 -130 6 0 6 7 -1 19 -15 29 -12 83 6
109 19 27 11 29 -16 2z"/>
<path d="M1048 254 c3 -33 -1 -60 -8 -69 -15 -18 1 -20 18 -3 16 16 15 103 0
116 -10 8 -12 -1 -10 -44z"/>
</g>
</svg>
