<?xml version="1.0" standalone="no"?>
<!DOCTYPE svg PUBLIC "-//W3C//DTD SVG 20010904//EN"
 "http://www.w3.org/TR/2001/REC-SVG-20010904/DTD/svg10.dtd">
<svg version="1.0" xmlns="http://www.w3.org/2000/svg"
 width="622.000000pt" height="189.000000pt" viewBox="0 0 622.000000 189.000000"
 preserveAspectRatio="xMidYMid meet">

<g transform="translate(0.000000,189.000000) scale(0.100000,-0.100000)"
fill="#000000" stroke="none">
<path d="M2022 1658 c-16 -16 -15 -41 1 -35 6 2 11 12 9 21 -2 12 2 17 15 14
31 -6 28 -52 -6 -91 -17 -19 -31 -37 -31 -41 0 -3 18 -6 39 -6 27 0 41 5 45
16 4 9 4 19 1 22 -3 3 -5 0 -5 -6 0 -7 -11 -12 -25 -12 -33 0 -32 11 5 43 34
30 37 48 14 71 -18 19 -45 21 -62 4z"/>
<path d="M1546 1619 c-3 -8 -25 -68 -50 -134 -24 -66 -47 -131 -50 -145 l-7
-25 14 25 c22 38 108 282 103 288 -3 3 -8 -1 -10 -9z"/>
<path d="M1643 1593 c-23 -30 -28 -48 -31 -107 -3 -59 1 -79 20 -116 13 -24
28 -46 34 -47 7 -2 1 18 -13 44 -21 41 -24 58 -20 119 3 51 10 82 26 108 29
47 20 46 -16 -1z"/>
<path d="M2181 1590 c33 -63 34 -178 2 -233 -27 -45 -29 -54 -7 -36 68 56 72
230 7 291 l-25 23 23 -45z"/>
<path d="M1930 1605 c-8 -9 -10 -28 -6 -50 5 -26 3 -35 -7 -35 -22 0 -51 -63
-43 -93 10 -41 53 -48 83 -13 31 36 30 87 -2 134 -33 48 -32 54 10 46 36 -6
50 8 19 20 -25 10 -41 7 -54 -9z m20 -139 c0 -51 -20 -76 -45 -56 -19 16 -19
33 0 70 24 46 45 39 45 -14z"/>
<path d="M2686 1593 c-3 -8 -6 -22 -6 -31 0 -12 3 -13 12 -4 7 7 29 12 50 12
l38 0 -26 -40 c-33 -49 -45 -130 -20 -130 13 0 16 10 16 48 0 36 7 60 31 96
16 27 29 49 27 51 -2 1 -29 5 -60 8 -45 4 -58 2 -62 -10z"/>
<path d="M2930 1591 c0 -11 -3 -28 -6 -38 -5 -17 -5 -17 9 0 9 10 28 17 50 17
l36 0 -30 -56 c-31 -60 -38 -114 -15 -114 9 0 15 18 19 55 4 40 14 67 36 97
17 23 30 42 28 43 -1 1 -30 5 -64 8 -57 6 -63 5 -63 -12z"/>
<path d="M3099 1589 c-20 -20 -19 -48 2 -75 6 -7 4 -16 -6 -24 -18 -15 -20
-61 -3 -78 15 -15 63 -16 89 -2 26 14 26 75 0 91 -18 12 -18 12 0 30 24 24 24
34 -1 59 -26 26 -55 25 -81 -1z m65 -5 c18 -18 18 -17 10 -38 -9 -22 -37 -20
-60 5 -18 20 -18 21 1 35 24 18 30 18 49 -2z m16 -140 c0 -25 -29 -39 -60 -29
-23 7 -28 53 -8 73 17 17 68 -16 68 -44z"/>
<path d="M3246 1603 c-3 -4 -5 -20 -5 -37 1 -17 3 -23 6 -13 3 13 15 17 48 17
l44 0 -24 -36 c-39 -57 -57 -134 -31 -134 13 0 26 41 26 85 0 12 14 41 31 64
17 24 29 44 27 46 -7 6 -117 13 -122 8z"/>
<path d="M3411 1584 c-38 -48 -22 -174 23 -182 40 -8 65 7 77 47 33 109 -42
209 -100 135z m69 -10 c13 -33 13 -120 0 -145 -13 -23 -46 -25 -54 -3 -11 28
-6 150 6 162 19 19 38 14 48 -14z"/>
<path d="M3566 1588 c-17 -24 -13 -38 11 -38 10 0 14 6 10 20 -6 23 5 33 27
24 24 -9 21 -65 -4 -71 -25 -7 -26 -19 0 -26 24 -6 37 -52 20 -72 -21 -25 -50
-19 -50 10 0 16 -6 25 -15 25 -18 0 -20 -31 -3 -48 15 -15 63 -16 89 -2 26 15
25 64 -3 90 -12 11 -17 20 -10 20 6 0 16 9 22 21 28 52 -60 97 -94 47z"/>
<path d="M3716 1603 c-3 -4 -5 -20 -5 -37 1 -17 3 -23 6 -13 3 12 15 17 44 17
21 0 39 -2 39 -4 0 -2 -11 -23 -24 -47 -32 -58 -44 -119 -23 -119 14 0 27 39
27 85 0 12 14 41 31 64 17 24 29 44 27 46 -7 6 -117 13 -122 8z"/>
<path d="M1315 1585 c-27 -12 -28 -13 -7 -14 21 -1 22 -5 22 -81 0 -74 -2 -80
-21 -80 -11 0 -17 -4 -14 -10 3 -5 28 -10 56 -10 27 0 49 5 49 10 0 6 -9 10
-20 10 -19 0 -20 7 -20 95 0 52 -3 95 -7 95 -5 -1 -21 -7 -38 -15z"/>
<path d="M1735 1586 c-12 -8 -16 -19 -12 -30 10 -25 33 -14 29 13 -3 19 1 22
20 19 33 -4 33 -58 0 -74 l-23 -12 24 -6 c14 -3 27 -15 30 -27 6 -24 -8 -69
-22 -69 -24 0 -38 13 -34 31 6 21 -20 28 -32 8 -12 -18 26 -49 60 -49 58 0 84
54 45 95 -18 20 -19 23 -5 35 18 15 20 51 3 68 -16 16 -60 15 -83 -2z"/>
<path d="M665 1514 c-49 -52 -21 -134 36 -104 15 8 24 8 34 0 10 -8 17 -7 29
5 9 9 16 22 16 28 0 7 -7 3 -15 -7 -21 -28 -25 -17 -13 37 5 27 8 50 6 52 -1
1 -18 6 -35 10 -27 5 -37 2 -58 -21z m60 -43 c-6 -39 -31 -61 -54 -47 -14 9 5
79 25 93 26 19 37 1 29 -46z"/>
<path d="M2350 1510 c0 -6 40 -10 100 -10 60 0 100 4 100 10 0 6 -40 10 -100
10 -60 0 -100 -4 -100 -10z"/>
<path d="M1018 1503 c28 -2 76 -2 105 0 28 2 5 3 -53 3 -58 0 -81 -1 -52 -3z"/>
<path d="M3924 1489 c-10 -17 13 -36 27 -22 12 12 4 33 -11 33 -5 0 -12 -5
-16 -11z"/>
<path d="M4070 1479 c0 -24 23 -21 28 4 2 10 -3 17 -12 17 -10 0 -16 -9 -16
-21z"/>
<path d="M4204 1489 c-10 -17 13 -36 27 -22 12 12 4 33 -11 33 -5 0 -12 -5
-16 -11z"/>
<path d="M965 1450 c-4 -6 32 -10 99 -10 64 0 106 4 106 10 0 6 -40 10 -99 10
-56 0 -103 -4 -106 -10z"/>
<path d="M2350 1450 c0 -6 40 -10 100 -10 60 0 100 4 100 10 0 6 -40 10 -100
10 -60 0 -100 -4 -100 -10z"/>
<path d="M2844 1429 c-10 -17 13 -36 27 -22 12 12 4 33 -11 33 -5 0 -12 -5
-16 -11z"/>
<path d="M1427 1153 c-11 -10 -8 -33 4 -33 6 0 9 7 5 15 -4 10 1 15 14 15 24
0 26 -22 5 -43 -13 -13 -13 -16 1 -21 10 -4 14 -16 12 -33 -4 -33 -27 -43 -35
-14 -6 24 -23 29 -23 6 0 -8 9 -19 19 -25 41 -21 81 21 55 58 -9 13 -11 23 -4
27 16 10 12 42 -6 49 -20 8 -39 8 -47 -1z"/>
<path d="M1330 1095 c-10 -12 -10 -21 -1 -42 11 -25 3 -42 -20 -43 -13 0 -36
-63 -31 -82 2 -11 16 -25 30 -31 21 -10 27 -8 48 16 32 37 31 87 -1 135 -27
39 -20 61 13 43 12 -6 23 -7 26 -2 15 24 -45 29 -64 6z m24 -109 c8 -34 -12
-88 -33 -84 -22 4 -26 54 -6 84 20 30 31 31 39 0z"/>
<path d="M2706 1097 c-36 -26 -42 -133 -10 -184 19 -31 67 -31 88 -1 25 35 22
152 -4 178 -23 23 -49 26 -74 7z m53 -11 c8 -9 11 -43 9 -92 -2 -61 -7 -79
-21 -88 -27 -17 -37 8 -37 95 0 88 19 121 49 85z"/>
<path d="M2941 1084 c-15 -20 -21 -41 -21 -80 0 -66 16 -103 48 -111 54 -13
85 35 78 122 -3 46 -10 64 -26 77 -31 25 -55 22 -79 -8z m69 -10 c13 -33 13
-130 0 -155 -6 -10 -17 -19 -25 -19 -23 0 -35 34 -35 100 0 66 12 100 36 100
8 0 19 -12 24 -26z"/>
<path d="M3106 1097 c-36 -26 -42 -133 -10 -184 19 -31 67 -31 88 -1 25 35 22
152 -4 178 -23 23 -49 26 -74 7z m52 -9 c12 -12 17 -143 6 -172 -3 -9 -14 -16
-24 -16 -24 0 -30 19 -30 104 0 65 10 96 30 96 3 0 11 -5 18 -12z"/>
<path d="M3262 1094 c-25 -17 -29 -56 -7 -74 13 -11 12 -15 -5 -37 -11 -14
-20 -32 -20 -39 0 -24 39 -54 69 -54 51 0 79 63 45 101 -12 13 -13 22 -5 38
17 30 13 59 -8 71 -27 14 -43 13 -69 -6z m68 -32 c0 -32 -20 -42 -46 -25 -28
18 -31 38 -7 52 22 12 53 -4 53 -27z m-12 -88 c30 -20 28 -52 -3 -66 -22 -10
-29 -9 -47 10 -19 18 -20 25 -10 47 13 29 28 31 60 9z"/>
<path d="M3417 1092 c-20 -21 -21 -45 -6 -73 8 -16 7 -25 -5 -38 -46 -51 20
-115 84 -81 29 15 34 59 11 91 -18 24 -18 29 -6 39 20 17 19 44 -3 63 -24 22
-55 21 -75 -1z m73 -31 c0 -31 -23 -43 -48 -25 -26 18 -29 51 -4 57 25 5 52
-11 52 -32z m-11 -94 c24 -26 20 -53 -10 -62 -43 -14 -79 41 -47 73 18 18 32
15 57 -11z"/>
<path d="M3560 1053 c0 -57 1 -58 31 -42 28 15 49 -5 49 -47 0 -31 -21 -64
-40 -64 -13 0 -25 23 -22 43 2 10 -3 17 -12 17 -21 0 -21 -34 0 -54 36 -37
104 -3 104 52 0 44 -27 74 -64 70 -26 -2 -32 1 -34 20 -3 18 1 22 26 22 16 0
36 8 45 18 15 16 13 17 -34 17 l-49 0 0 -52z"/>
<path d="M3743 1095 c-45 -31 -54 -126 -18 -181 19 -30 58 -31 85 -4 41 41 14
120 -41 120 -35 0 -40 27 -10 54 22 20 43 14 34 -9 -3 -10 1 -15 12 -15 11 0
15 7 13 23 -4 28 -44 34 -75 12z m51 -91 c10 -27 7 -69 -8 -90 -14 -18 -16
-18 -31 -3 -17 17 -23 78 -10 98 10 16 42 13 49 -5z"/>
<path d="M687 1083 c-4 -3 -7 -15 -7 -25 0 -10 -10 -22 -22 -27 -17 -6 -18 -9
-6 -14 13 -4 14 -13 5 -50 -5 -25 -7 -53 -3 -62 9 -23 46 -15 64 15 l16 25
-26 -23 c-14 -13 -28 -20 -31 -15 -11 18 19 106 38 114 17 6 17 8 3 8 -14 1
-16 7 -11 31 5 28 -5 39 -20 23z"/>
<path d="M970 1000 c0 -6 40 -10 100 -10 60 0 100 4 100 10 0 6 -40 10 -100
10 -60 0 -100 -4 -100 -10z"/>
<path d="M2398 1003 c28 -2 76 -2 105 0 28 2 5 3 -53 3 -58 0 -81 -1 -52 -3z"/>
<path d="M771 976 c-16 -19 -17 -87 -2 -114 15 -28 46 -28 65 0 32 45 13 128
-28 128 -13 0 -29 -6 -35 -14z m53 -12 c11 -29 6 -91 -9 -104 -24 -20 -35 -2
-35 61 0 51 2 59 19 59 10 0 22 -7 25 -16z"/>
<path d="M3927 984 c-9 -10 2 -24 19 -24 8 0 14 7 14 15 0 15 -21 21 -33 9z"/>
<path d="M4067 984 c-9 -10 2 -24 19 -24 8 0 14 7 14 15 0 15 -21 21 -33 9z"/>
<path d="M4207 984 c-9 -10 2 -24 19 -24 8 0 14 7 14 15 0 15 -21 21 -33 9z"/>
<path d="M970 940 c0 -6 40 -10 100 -10 60 0 100 4 100 10 0 6 -40 10 -100 10
-60 0 -100 -4 -100 -10z"/>
<path d="M2398 943 c28 -2 76 -2 105 0 28 2 5 3 -53 3 -58 0 -81 -1 -52 -3z"/>
<path d="M2847 924 c-9 -10 2 -24 19 -24 8 0 14 7 14 15 0 15 -21 21 -33 9z"/>
<path d="M680 505 c-8 -9 -10 -27 -6 -46 5 -26 1 -36 -19 -54 -43 -41 -46 -93
-5 -115 21 -11 21 -11 6 12 -8 13 -12 34 -9 50 6 30 39 65 50 54 12 -12 7 -84
-7 -101 -8 -9 -9 -15 -2 -15 20 0 42 44 42 82 0 23 -9 51 -25 74 -28 42 -25
57 10 44 16 -6 27 -6 31 1 8 13 5 15 -27 22 -18 5 -31 2 -39 -8z"/>
<path d="M1450 510 c0 -6 -22 -73 -50 -148 -48 -132 -61 -176 -39 -139 22 37
108 297 99 297 -6 0 -10 -5 -10 -10z"/>
<path d="M1730 490 c0 -5 4 -10 9 -10 14 0 21 -43 12 -75 -8 -32 -38 -46 -52
-23 -14 22 -10 75 7 92 13 13 13 16 1 16 -22 0 -47 -34 -47 -64 0 -15 11 -38
25 -52 20 -20 28 -23 45 -14 17 9 20 8 20 -14 0 -27 -26 -59 -44 -53 -6 2 -10
11 -8 21 2 9 -4 16 -13 16 -25 0 -18 -39 9 -46 66 -16 118 86 86 170 -9 26
-50 55 -50 36z"/>
<path d="M1216 471 c-38 -42 -38 -150 0 -178 43 -31 98 1 96 56 -1 46 -19 71
-50 70 -26 0 -26 -1 -4 -9 18 -8 22 -17 22 -53 0 -51 -15 -71 -42 -56 -16 9
-18 20 -15 86 3 60 8 79 22 89 15 11 16 14 3 14 -8 0 -22 -8 -32 -19z"/>
<path d="M1277 470 c5 -20 15 -25 26 -14 9 9 -4 34 -18 34 -8 0 -11 -8 -8 -20z"/>
<path d="M1510 470 c-12 -23 -6 -40 16 -40 10 0 13 7 8 26 -6 23 -4 25 22 22
25 -3 29 -8 32 -40 2 -29 -3 -44 -29 -75 -69 -81 -69 -73 -2 -73 57 0 61 2 65
25 3 14 1 25 -3 25 -5 0 -9 -4 -9 -10 0 -5 -16 -10 -36 -10 l-36 0 40 41 c49
48 59 73 41 105 -17 33 -92 35 -109 4z"/>
<path d="M180 365 c0 -37 4 -65 10 -65 6 0 10 26 10 59 0 57 1 60 28 64 22 3
20 4 -10 6 l-38 1 0 -65z"/>
<path d="M280 398 c0 -18 -7 -46 -15 -62 -8 -15 -14 -40 -14 -55 2 -23 2 -24
6 -3 4 19 11 22 54 22 42 0 51 -4 60 -22 8 -19 9 -15 4 17 -2 22 -5 61 -5 88
l0 47 -45 0 c-44 0 -45 -1 -45 -32z m65 -33 c0 -49 -1 -50 -33 -53 l-32 -3 6
43 c9 64 12 70 36 66 20 -3 23 -9 23 -53z"/>
<path d="M426 414 c-21 -20 -21 -78 0 -98 20 -20 68 -21 84 -1 15 17 7 19 -21
5 -23 -13 -59 3 -59 25 0 11 12 15 45 15 41 0 45 2 45 25 0 41 -63 61 -94 29z
m62 -6 c23 -23 13 -38 -23 -38 -22 0 -35 5 -35 13 0 16 20 37 35 37 6 0 16 -5
23 -12z"/>
<path d="M865 400 c-4 -6 30 -10 95 -10 65 0 99 4 95 10 -3 6 -46 10 -95 10
-49 0 -92 -4 -95 -10z"/>
<path d="M908 333 c28 -2 76 -2 105 0 28 2 5 3 -53 3 -58 0 -81 -1 -52 -3z"/>
<path d="M1830 310 c0 -5 5 -10 10 -10 6 0 10 5 10 10 0 6 -4 10 -10 10 -5 0
-10 -4 -10 -10z"/>
</g>
</svg>
