<?xml version="1.0" standalone="no"?>
<!DOCTYPE svg PUBLIC "-//W3C//DTD SVG 20010904//EN"
 "http://www.w3.org/TR/2001/REC-SVG-20010904/DTD/svg10.dtd">
<svg version="1.0" xmlns="http://www.w3.org/2000/svg"
 width="745.000000pt" height="483.000000pt" viewBox="0 0 745.000000 483.000000"
 preserveAspectRatio="xMidYMid meet">

<g transform="translate(0.000000,483.000000) scale(0.100000,-0.100000)"
fill="#000000" stroke="none">
<path d="M2687 4353 c-40 -43 -57 -94 -57 -175 0 -89 13 -138 46 -178 31 -37
54 -40 25 -4 -30 38 -43 97 -43 189 1 68 5 88 31 137 16 32 28 58 27 58 -1 0
-14 -12 -29 -27z"/>
<path d="M3224 4365 c-5 -11 -38 -103 -75 -205 -60 -164 -71 -206 -54 -188 12
11 145 392 142 402 -3 6 -8 2 -13 -9z"/>
<path d="M3750 4377 c0 -4 12 -31 27 -60 24 -46 27 -64 27 -147 1 -85 -2 -100
-27 -144 -28 -50 -29 -75 -2 -40 82 104 84 279 5 367 -16 17 -30 28 -30 24z"/>
<path d="M1005 4350 c7 -23 2 -25 -26 -10 -25 14 -25 -1 1 -23 11 -9 20 -28
20 -42 0 -14 5 -25 10 -25 6 0 10 12 10 27 0 21 3 24 12 15 7 -7 19 -12 28
-12 10 0 8 6 -9 19 l-24 19 21 7 c12 3 19 11 16 17 -4 6 -10 6 -17 -1 -17 -17
-27 -13 -27 9 0 11 -5 20 -11 20 -6 0 -8 -9 -4 -20z"/>
<path d="M2517 4343 c-8 -10 -19 -34 -24 -53 -7 -25 -16 -36 -31 -38 -28 -4
-29 -22 -1 -22 15 0 19 -5 15 -17 -3 -10 -12 -55 -20 -101 -17 -89 -35 -137
-36 -94 0 17 -5 23 -17 20 -29 -5 -22 -42 8 -46 39 -5 58 26 82 137 20 91 24
101 45 101 12 0 22 5 22 10 0 6 -10 10 -21 10 -19 0 -21 4 -14 38 8 43 25 67
25 34 0 -26 12 -28 31 -6 11 14 10 18 -6 30 -25 18 -39 18 -58 -3z"/>
<path d="M745 4340 c-3 -5 3 -10 15 -10 16 0 20 -5 16 -17 -3 -10 -10 -40 -17
-68 -29 -127 -40 -155 -60 -155 -10 0 -19 -4 -19 -10 0 -6 42 -10 105 -10 58
0 105 2 105 5 0 2 9 27 20 55 24 60 14 66 -18 10 -23 -42 -48 -54 -99 -48
l-29 3 23 95 c12 52 25 105 28 118 4 15 13 22 30 22 14 0 25 5 25 10 0 6 -26
10 -59 10 -33 0 -63 -4 -66 -10z"/>
<path d="M2760 4340 c0 -5 8 -10 18 -10 14 0 25 -19 45 -76 24 -68 25 -80 15
-120 -9 -30 -17 -44 -29 -44 -10 0 -21 -4 -24 -10 -4 -6 17 -10 54 -10 34 0
61 4 61 10 0 6 -7 10 -15 10 -18 0 -18 22 -2 67 15 39 133 173 153 173 8 0 14
5 14 10 0 6 -18 10 -41 10 -34 0 -39 -3 -35 -17 3 -12 -10 -37 -39 -72 l-45
-53 -14 34 c-27 63 -30 88 -12 88 9 0 16 5 16 10 0 6 -27 10 -60 10 -33 0 -60
-4 -60 -10z"/>
<path d="M3280 4340 c0 -5 9 -10 19 -10 15 0 25 -17 44 -74 22 -64 24 -81 15
-116 -8 -29 -18 -44 -34 -51 -38 -14 -28 -19 36 -19 33 0 60 4 60 10 0 6 -7
10 -15 10 -56 0 74 211 148 239 40 15 33 21 -24 21 -44 0 -50 -2 -39 -15 10
-12 7 -21 -18 -52 -16 -21 -39 -46 -49 -56 -20 -17 -21 -16 -38 40 -13 41 -15
58 -7 61 30 10 6 22 -43 22 -30 0 -55 -4 -55 -10z"/>
<path d="M1770 4330 c-8 -5 -25 -10 -37 -10 -13 0 -23 -4 -23 -10 0 -5 11 -10
25 -10 l25 0 0 -105 0 -105 -25 0 c-14 0 -25 -4 -25 -10 0 -6 30 -10 71 -10
44 0 68 4 64 10 -3 6 -15 10 -26 10 -18 0 -19 8 -19 125 0 69 -3 125 -7 125
-5 0 -15 -5 -23 -10z"/>
<path d="M1953 4326 c-46 -17 -51 -26 -15 -26 l32 0 0 -105 0 -105 -25 0 c-14
0 -25 -4 -25 -10 0 -6 31 -10 72 -10 66 0 85 12 33 22 -19 3 -20 12 -23 126
-1 67 -6 121 -10 121 -4 -1 -21 -7 -39 -13z"/>
<path d="M2150 4313 c-80 -72 -51 -253 41 -253 46 0 79 39 79 92 -1 67 -44
107 -96 88 -26 -10 -26 -10 -20 22 10 54 76 93 68 41 -4 -25 26 -39 35 -16 10
24 -11 48 -45 51 -22 2 -39 -4 -62 -25z m69 -97 c18 -22 10 -117 -11 -130 -30
-19 -53 4 -56 57 -2 26 2 55 8 67 12 23 42 26 59 6z"/>
<path d="M4453 4327 c-39 -13 -43 -27 -8 -27 l25 0 0 -105 0 -105 -25 0 c-14
0 -25 -4 -25 -10 0 -6 31 -10 72 -10 66 0 85 12 33 22 -19 3 -20 12 -23 126
-1 67 -6 121 -10 121 -4 -1 -22 -7 -39 -12z"/>
<path d="M4662 4324 c-64 -45 -76 -181 -21 -240 40 -42 100 -27 125 31 29 71
-29 149 -92 125 -26 -10 -26 -10 -20 22 10 54 71 90 71 42 0 -10 8 -20 18 -22
11 -2 17 3 17 15 0 42 -55 57 -98 27z m56 -106 c16 -16 16 -110 0 -126 -33
-33 -68 -1 -68 63 0 64 35 96 68 63z"/>
<path d="M965 4290 c-3 -5 1 -10 9 -10 9 0 16 5 16 10 0 6 -4 10 -9 10 -6 0
-13 -4 -16 -10z"/>
<path d="M1270 4210 c0 -6 50 -10 130 -10 80 0 130 4 130 10 0 6 -50 10 -130
10 -80 0 -130 -4 -130 -10z"/>
<path d="M4010 4170 c0 -6 47 -10 120 -10 73 0 120 4 120 10 0 6 -47 10 -120
10 -73 0 -120 -4 -120 -10z"/>
<path d="M1270 4130 c0 -6 50 -10 130 -10 80 0 130 4 130 10 0 6 -50 10 -130
10 -80 0 -130 -4 -130 -10z"/>
<path d="M3516 4113 c-10 -25 -6 -29 9 -9 21 28 28 14 16 -31 -6 -21 -11 -46
-11 -56 0 -32 20 -7 31 38 12 49 31 70 53 62 12 -5 13 -13 5 -39 -11 -41 -12
-68 0 -68 11 0 35 86 28 104 -8 20 -123 20 -131 -1z"/>
<path d="M3650 4025 c-7 -9 -8 -15 -2 -15 5 0 12 7 16 15 3 8 4 15 2 15 -2 0
-9 -7 -16 -15z"/>
<path d="M948 3794 c-5 -4 -8 -16 -8 -27 0 -16 -2 -17 -15 -7 -9 7 -19 10 -23
6 -4 -4 2 -12 12 -18 19 -11 19 -11 1 -24 -10 -8 -16 -17 -12 -20 4 -4 13 -1
22 6 13 11 15 9 15 -14 0 -14 5 -26 10 -26 6 0 10 12 10 26 0 23 2 25 15 14 9
-7 18 -10 22 -6 4 3 -2 12 -12 20 -18 13 -18 13 1 24 10 6 16 14 12 18 -4 4
-14 1 -22 -5 -12 -10 -15 -8 -18 14 -2 15 -6 23 -10 19z"/>
<path d="M2342 3593 l3 -208 28 -3 c15 -2 27 1 27 7 0 6 -9 11 -20 11 -19 0
-20 7 -20 190 0 188 0 191 23 200 20 8 19 9 -11 9 l-32 1 2 -207z"/>
<path d="M2731 3774 c-76 -96 -66 -302 18 -378 26 -24 27 -13 3 22 -31 45 -42
91 -42 182 0 76 4 94 28 144 30 59 27 73 -7 30z"/>
<path d="M3242 3596 c-74 -209 -79 -227 -62 -210 7 7 150 396 150 409 0 3 -4
5 -8 5 -5 0 -41 -92 -80 -204z"/>
<path d="M3955 3765 c26 -39 45 -114 45 -179 0 -50 -26 -144 -46 -167 -22 -25
-18 -46 5 -25 41 37 65 106 65 191 1 89 -13 141 -51 185 -34 41 -48 38 -18 -5z"/>
<path d="M4897 3782 c-81 -89 -79 -299 3 -377 36 -35 38 -28 6 20 -55 80 -55
236 -2 331 25 45 22 58 -7 26z"/>
<path d="M5435 3790 c-16 -26 -142 -396 -138 -403 3 -5 6 -7 8 -5 9 10 146
411 142 415 -3 2 -8 -1 -12 -7z"/>
<path d="M5975 3764 c62 -91 57 -267 -11 -361 -9 -13 -12 -23 -6 -23 12 0 41
39 66 88 42 81 26 234 -30 301 -35 42 -49 39 -19 -5z"/>
<path d="M6118 3790 c22 -9 22 -12 22 -200 0 -183 -1 -190 -20 -190 -11 0 -20
-5 -20 -11 0 -6 12 -9 28 -7 l27 3 3 208 2 207 -32 -1 c-30 0 -31 -1 -10 -9z"/>
<path d="M2566 3761 c-9 -10 -20 -35 -23 -55 -5 -30 -10 -36 -29 -36 -13 0
-24 -4 -24 -10 0 -5 9 -10 20 -10 11 0 20 -1 20 -2 0 -24 -43 -215 -50 -222
-5 -5 -7 0 -3 13 4 16 1 21 -15 21 -25 0 -34 -23 -18 -45 16 -22 51 -12 68 18
7 12 22 65 34 117 18 81 24 95 42 98 28 4 29 22 2 22 -19 0 -20 4 -14 38 9 49
23 76 24 45 0 -13 6 -23 14 -23 19 0 28 14 20 34 -8 22 -47 20 -68 -3z"/>
<path d="M4726 3762 c-9 -11 -21 -36 -27 -56 -7 -26 -16 -36 -29 -36 -11 0
-20 -4 -20 -10 0 -5 9 -10 20 -10 11 0 20 -2 20 -4 0 -24 -44 -214 -52 -221
-6 -7 -9 -3 -6 10 4 25 -27 32 -36 9 -9 -24 16 -48 42 -40 28 9 51 63 69 162
14 77 17 84 39 84 13 0 24 5 24 10 0 6 -9 10 -21 10 -19 0 -20 4 -14 43 8 49
12 57 28 57 8 0 8 -3 -1 -12 -18 -18 -15 -28 9 -28 15 0 20 5 17 23 -4 29 -39
34 -62 9z"/>
<path d="M1750 3760 c-14 -4 -42 -5 -62 -3 l-38 6 0 -73 c0 -39 3 -70 8 -68 4
2 19 10 34 17 41 21 58 2 58 -63 0 -56 -12 -76 -45 -76 -32 0 -46 19 -32 41
16 26 -5 48 -28 29 -33 -27 10 -90 61 -90 51 0 87 36 87 89 0 59 -34 94 -85
89 -35 -3 -38 -2 -38 23 0 23 6 28 44 38 24 6 49 18 56 26 16 20 11 24 -20 15z"/>
<path d="M1890 3757 c-37 -18 -50 -54 -50 -135 0 -111 34 -156 105 -138 69 17
83 208 19 264 -29 25 -39 27 -74 9z m61 -24 c10 -11 14 -44 13 -110 -1 -83 -4
-97 -23 -116 l-21 -21 -22 22 c-20 20 -23 32 -23 116 0 98 10 126 45 126 10 0
24 -7 31 -17z"/>
<path d="M2093 3754 c-42 -21 -57 -66 -50 -157 4 -61 8 -74 31 -94 36 -31 76
-30 106 2 20 21 25 39 28 95 8 131 -38 192 -115 154z m67 -23 c5 -11 10 -60
10 -110 0 -78 -3 -94 -20 -111 -25 -25 -56 -13 -66 25 -12 47 0 195 16 205 24
15 48 12 60 -9z"/>
<path d="M2880 3765 c0 -3 10 -9 23 -14 16 -6 29 -26 42 -64 l18 -55 -32 -41
c-41 -51 -78 -81 -102 -81 -11 0 -19 -4 -19 -10 0 -5 23 -10 50 -10 45 0 67
13 39 22 -6 2 9 25 32 52 l43 48 18 -47 c18 -45 18 -48 1 -61 -16 -12 -10 -13
45 -14 40 0 61 4 57 10 -3 6 -13 10 -21 10 -14 0 -47 64 -60 116 -8 31 58 113
98 121 51 10 41 23 -18 23 -50 0 -55 -2 -44 -15 11 -13 8 -21 -15 -45 -16 -17
-32 -30 -36 -30 -4 0 -12 14 -18 31 -9 27 -8 34 7 45 15 12 9 13 -45 14 -35 0
-63 -2 -63 -5z"/>
<path d="M3452 3757 c20 -8 32 -25 48 -70 l22 -59 -58 -59 c-32 -33 -66 -59
-76 -59 -9 0 -20 -4 -23 -10 -4 -6 15 -10 49 -10 51 0 74 12 44 22 -7 3 3 23
27 51 22 26 42 44 46 39 3 -4 13 -26 22 -49 15 -38 15 -43 2 -43 -8 0 -15 -4
-15 -10 0 -5 25 -10 55 -10 30 0 55 5 55 10 0 6 -8 10 -19 10 -10 0 -21 8 -24
18 -2 9 -14 40 -25 69 l-21 52 45 50 c25 28 54 51 64 51 11 0 22 5 25 10 4 6
-13 10 -44 10 -28 0 -51 -4 -51 -10 0 -5 5 -10 11 -10 6 0 -4 -19 -22 -42
l-33 -41 -14 34 c-10 25 -11 38 -3 51 10 17 6 18 -51 17 -55 -1 -60 -2 -36
-12z"/>
<path d="M4970 3760 c0 -5 8 -10 19 -10 14 0 25 -18 45 -74 24 -66 26 -78 15
-120 -9 -39 -15 -46 -35 -46 -13 0 -24 -4 -24 -10 0 -6 29 -10 66 -10 41 0 63
4 59 10 -3 6 -13 10 -22 10 -21 0 -9 64 19 105 50 70 112 135 129 135 10 0 21
5 24 10 4 6 -14 10 -46 10 -44 0 -50 -2 -39 -15 10 -12 5 -23 -30 -65 -23 -27
-46 -50 -50 -50 -5 0 -16 23 -25 51 -16 48 -16 51 1 64 17 13 12 14 -43 15
-36 0 -63 -4 -63 -10z"/>
<path d="M5495 3760 c3 -5 12 -10 18 -10 7 0 24 -33 39 -73 23 -65 25 -79 15
-120 -7 -34 -15 -47 -28 -47 -10 0 -21 -4 -24 -10 -4 -6 17 -10 54 -10 34 0
61 4 61 10 0 6 -7 10 -16 10 -13 0 -15 7 -9 43 9 51 104 173 156 199 l34 17
-54 1 c-44 0 -51 -2 -42 -14 9 -11 2 -26 -35 -70 -25 -32 -47 -56 -49 -54 -2
2 -12 29 -23 61 -17 46 -18 57 -6 57 8 0 14 5 14 10 0 6 -25 10 -56 10 -34 0
-53 -4 -49 -10z"/>
<path d="M717 3642 c-48 -50 -54 -120 -13 -148 18 -11 30 -12 50 -5 16 7 35 7
49 2 27 -11 39 -5 56 26 13 26 14 33 2 33 -5 0 -12 -11 -15 -25 -11 -42 -29
-30 -22 15 3 22 9 57 12 79 6 37 5 38 -26 45 -53 10 -65 7 -93 -22z m83 -21
c0 -51 -20 -102 -46 -113 -39 -18 -48 0 -33 67 13 57 39 88 65 78 8 -3 14 -17
14 -32z"/>
<path d="M1212 3635 c7 -7 249 -7 256 0 3 3 -55 5 -128 5 -73 0 -131 -2 -128
-5z"/>
<path d="M4195 3590 c4 -6 57 -10 126 -10 73 0 119 4 119 10 0 6 -49 10 -126
10 -81 0 -123 -4 -119 -10z"/>
<path d="M1205 3550 c4 -6 60 -10 136 -10 79 0 129 4 129 10 0 6 -52 10 -136
10 -87 0 -133 -4 -129 -10z"/>
<path d="M3780 3550 c-8 -5 -25 -6 -38 -3 -15 3 -27 1 -33 -8 -15 -23 -9 -35
6 -15 22 30 26 16 11 -42 -8 -29 -10 -54 -6 -57 11 -7 16 2 25 45 13 63 66 98
64 43 0 -16 -4 -37 -8 -48 -10 -24 -3 -45 14 -45 14 0 45 32 45 46 0 5 -9 -2
-20 -16 -23 -29 -25 -15 -8 43 11 35 10 41 -7 53 -22 16 -25 17 -45 4z"/>
<path d="M5736 3545 c-9 -9 -16 -22 -16 -28 0 -7 7 -3 15 7 21 27 25 17 15
-29 -20 -83 -2 -103 19 -22 12 48 33 72 55 64 11 -5 12 -13 4 -46 -11 -42 -6
-71 11 -71 14 0 41 29 41 43 0 7 -9 1 -20 -13 -23 -29 -25 -15 -8 43 10 35 10
41 -6 53 -13 9 -25 10 -43 3 -17 -6 -30 -6 -38 1 -9 8 -17 6 -29 -5z"/>
<path d="M2300 3015 l0 -205 28 1 c16 1 20 3 10 6 -16 4 -18 22 -18 194 0 161
2 189 15 189 8 0 15 5 15 10 0 6 -11 10 -25 10 l-25 0 0 -205z"/>
<path d="M2693 3197 c-76 -82 -84 -248 -17 -349 35 -55 50 -47 17 9 -22 39
-28 61 -31 134 -5 92 6 143 40 192 25 35 19 45 -9 14z"/>
<path d="M3226 3210 c-3 -8 -37 -100 -75 -205 -62 -169 -74 -211 -55 -193 11
11 144 393 140 403 -2 5 -6 3 -10 -5z"/>
<path d="M3750 3214 c0 -5 7 -19 15 -31 8 -12 22 -50 31 -84 24 -95 5 -218
-43 -271 -24 -26 0 -22 25 5 78 83 75 299 -7 371 -11 11 -21 15 -21 10z"/>
<path d="M4703 3198 c-38 -42 -56 -98 -56 -183 0 -86 17 -141 55 -182 33 -35
40 -27 13 13 -61 89 -54 283 12 356 9 10 12 18 6 18 -5 0 -19 -10 -30 -22z"/>
<path d="M5216 3189 c-7 -19 -37 -99 -65 -179 -29 -80 -57 -156 -62 -169 -9
-21 -5 -41 5 -30 10 11 146 402 141 407 -2 3 -11 -10 -19 -29z"/>
<path d="M5813 3159 c26 -51 31 -72 31 -137 0 -81 -14 -139 -46 -184 -23 -34
-10 -37 19 -5 59 63 75 210 34 302 -21 48 -48 85 -61 85 -4 0 7 -27 23 -61z"/>
<path d="M5930 3210 c0 -5 7 -10 15 -10 13 0 15 -28 15 -189 0 -189 0 -190
-22 -194 -17 -3 -14 -5 10 -6 l32 -1 0 205 0 205 -25 0 c-14 0 -25 -4 -25 -10z"/>
<path d="M900 3189 c0 -18 -2 -19 -15 -9 -9 7 -19 10 -23 6 -4 -4 1 -14 11
-21 18 -13 18 -14 0 -23 -10 -6 -15 -14 -11 -18 4 -4 14 -1 23 6 13 11 15 9
15 -14 0 -14 5 -26 10 -26 6 0 10 12 10 27 0 21 3 24 12 15 14 -14 28 -16 28
-4 0 5 -10 13 -22 19 l-23 10 23 7 c12 4 22 12 22 17 0 13 -14 11 -28 -3 -9
-9 -12 -7 -12 10 0 12 -4 22 -10 22 -5 0 -10 -10 -10 -21z"/>
<path d="M713 3193 c-26 -5 -31 -23 -8 -23 20 0 19 -11 -5 -95 -34 -118 -22
-165 40 -165 41 0 90 59 90 108 0 54 -19 76 -59 70 -32 -5 -33 -4 -27 24 21
99 24 92 -31 81z m87 -140 c0 -35 -24 -103 -41 -119 -18 -16 -21 -16 -36 -2
-24 24 -10 101 23 127 27 21 54 18 54 -6z"/>
<path d="M2516 3178 c-9 -13 -19 -38 -22 -56 -5 -25 -12 -32 -30 -32 -13 0
-24 -4 -24 -10 0 -5 9 -10 20 -10 13 0 20 -7 20 -17 -1 -39 -38 -195 -49 -206
-9 -9 -11 -8 -6 5 9 23 -2 39 -21 31 -26 -10 -13 -48 18 -51 35 -4 55 32 78
147 16 80 19 86 44 89 34 4 34 22 0 22 -20 0 -25 4 -20 16 3 9 6 23 6 33 0 9
7 26 15 37 14 18 14 18 9 -2 -7 -25 6 -36 26 -24 12 7 12 14 4 27 -17 28 -50
28 -68 1z"/>
<path d="M4532 3188 c-5 -7 -16 -32 -24 -56 -9 -28 -19 -42 -30 -42 -10 0 -18
-4 -18 -10 0 -5 7 -10 15 -10 8 0 15 -6 15 -12 0 -37 -34 -189 -45 -205 -13
-17 -14 -16 -8 6 5 19 2 22 -13 19 -31 -5 -24 -42 8 -46 36 -4 53 24 73 118
25 124 23 120 50 120 14 0 25 5 25 10 0 6 -10 10 -21 10 -20 0 -21 4 -16 41 3
23 11 47 17 53 9 8 11 6 6 -11 -4 -12 -3 -24 2 -26 14 -10 34 10 30 29 -4 23
-50 31 -66 12z"/>
<path d="M1633 3175 c-45 -19 -59 -85 -18 -85 16 0 28 27 15 35 -16 10 -11 23
11 36 17 9 25 7 45 -12 40 -38 28 -80 -51 -169 -25 -28 -45 -55 -45 -60 0 -6
33 -10 74 -10 68 0 74 2 80 23 9 33 7 57 -4 57 -5 0 -10 -9 -10 -20 0 -17 -7
-20 -45 -20 -25 0 -45 3 -45 6 0 4 25 30 55 59 46 44 55 59 55 87 0 61 -60 98
-117 73z"/>
<path d="M1855 3180 c-42 -16 -59 -48 -63 -119 -7 -113 37 -176 107 -153 53
17 78 133 48 221 -13 39 -59 64 -92 51z m45 -20 c19 -12 28 -187 11 -219 -17
-32 -59 -28 -72 7 -16 41 -8 200 11 212 19 12 31 12 50 0z"/>
<path d="M2055 3180 c-51 -20 -75 -100 -56 -184 29 -130 138 -126 161 5 22
118 -32 209 -105 179z m56 -26 c17 -21 17 -198 -1 -219 -18 -22 -52 -15 -68
15 -17 33 -12 181 7 203 17 21 45 22 62 1z"/>
<path d="M2760 3185 c0 -3 10 -9 23 -14 28 -11 71 -134 61 -178 -12 -57 -16
-63 -35 -63 -10 0 -19 -4 -19 -10 0 -6 27 -10 60 -10 33 0 60 4 60 10 0 6 -9
10 -20 10 -17 0 -19 5 -13 33 3 17 9 40 12 49 10 27 131 158 146 158 8 0 17 5
20 10 4 6 -12 10 -40 10 -40 0 -46 -2 -41 -18 5 -14 -32 -71 -79 -120 -2 -2
-13 22 -24 53 -21 55 -21 58 -4 71 16 12 10 13 -44 14 -35 0 -63 -2 -63 -5z"/>
<path d="M3280 3180 c0 -5 8 -10 19 -10 14 0 25 -18 45 -74 23 -67 25 -77 13
-117 -10 -33 -18 -45 -35 -47 -12 -2 -20 -8 -17 -13 8 -12 115 -12 115 1 0 6
-7 10 -15 10 -57 0 73 213 145 239 43 15 37 21 -21 21 -44 0 -50 -2 -39 -15
10 -12 4 -24 -36 -71 l-48 -56 -21 59 c-19 55 -20 58 -3 65 32 13 19 18 -42
18 -33 0 -60 -4 -60 -10z"/>
<path d="M4850 3145 c-14 -49 -7 -74 9 -32 14 37 49 57 99 57 l44 0 -40 -48
c-22 -26 -70 -80 -106 -119 -36 -39 -66 -76 -66 -82 0 -7 33 -11 98 -11 l99 0
15 55 c17 62 10 72 -15 20 -9 -20 -28 -40 -43 -45 -30 -12 -94 -13 -94 -2 0 4
42 55 93 113 50 58 98 113 106 122 12 16 6 17 -86 17 l-100 0 -13 -45z"/>
<path d="M5351 3144 c-14 -56 -8 -67 13 -25 20 38 44 51 96 51 l42 0 -44 -52
c-23 -28 -71 -82 -105 -120 -35 -37 -63 -73 -63 -78 0 -6 38 -10 95 -10 104 0
103 -1 123 73 13 47 1 48 -21 2 -9 -20 -28 -40 -43 -45 -30 -12 -94 -13 -94
-2 0 4 34 45 76 92 41 47 89 102 106 123 l30 37 -100 0 -100 0 -11 -46z"/>
<path d="M1165 3050 c4 -6 58 -10 130 -10 72 0 126 4 130 10 4 6 -42 10 -130
10 -88 0 -134 -4 -130 -10z"/>
<path d="M4068 3013 c34 -2 90 -2 125 0 34 2 6 3 -63 3 -69 0 -97 -1 -62 -3z"/>
<path d="M1222 2973 c37 -2 100 -2 140 0 40 1 10 3 -67 3 -77 0 -110 -1 -73
-3z"/>
<path d="M3526 2964 c-9 -8 -16 -21 -16 -27 0 -7 7 -3 15 7 21 28 28 14 16
-31 -13 -47 -14 -63 -2 -63 5 0 12 15 16 33 4 17 13 42 21 55 17 26 60 31 50
6 -3 -9 -9 -33 -12 -55 -6 -34 -4 -39 13 -39 20 0 43 18 43 34 0 5 -10 1 -22
-10 -21 -19 -21 -19 -14 6 17 64 17 76 2 90 -12 9 -22 10 -39 3 -14 -7 -30 -7
-39 -2 -11 6 -21 4 -32 -7z"/>
<path d="M5582 2970 c2 -8 -1 -38 -8 -67 -10 -43 -10 -53 1 -53 7 0 16 16 20
36 9 48 26 74 49 74 16 0 18 -5 12 -32 -12 -69 -12 -73 11 -76 14 -2 26 4 34
20 l12 23 -23 -20 -23 -20 7 30 c4 17 10 39 12 51 8 31 -20 50 -52 35 -21 -9
-30 -9 -42 1 -13 11 -14 10 -10 -2z"/>
<path d="M5556 2955 c-9 -26 -7 -32 5 -12 6 10 9 21 6 23 -2 3 -7 -2 -11 -11z"/>
<path d="M140 2285 c0 -50 4 -85 10 -85 6 0 10 32 10 75 l0 75 35 0 c19 0 35
5 35 10 0 6 -20 10 -45 10 l-45 0 0 -85z"/>
<path d="M270 2344 c0 -42 -22 -115 -36 -121 -8 -3 -14 -20 -14 -39 0 -38 17
-47 22 -11 3 20 9 22 76 25 71 3 72 3 72 -23 0 -14 5 -25 10 -25 6 0 10 16 10
35 0 19 -4 35 -10 35 -6 0 -10 32 -10 75 l0 75 -60 0 c-58 0 -60 -1 -60 -26z
m90 -59 l0 -65 -46 0 c-43 0 -46 2 -40 23 3 12 9 41 12 65 6 40 8 42 40 42
l34 0 0 -65z"/>
<path d="M472 2363 c-7 -3 -19 -18 -28 -35 -20 -39 -11 -92 19 -113 27 -19 77
-19 103 -1 24 18 10 34 -16 18 -28 -17 -54 -15 -74 7 -27 30 -11 41 55 41 53
0 59 2 59 20 0 47 -68 83 -118 63z m69 -23 c38 -21 23 -40 -31 -40 -54 0 -62
10 -28 34 26 19 33 19 59 6z"/>
<path d="M2135 1808 c-68 -59 -75 -85 -75 -287 0 -216 -9 -264 -57 -320 l-36
-42 26 -27 c57 -62 61 -80 67 -312 6 -241 9 -254 82 -313 42 -34 63 -30 31 6
-57 62 -58 67 -63 297 -5 197 -7 218 -27 257 -13 22 -37 53 -55 67 l-33 26 33
26 c18 14 42 45 55 67 20 38 22 60 27 257 5 201 6 217 28 252 12 20 29 39 37
42 16 6 21 36 5 36 -5 0 -25 -14 -45 -32z"/>
<path d="M2720 1783 c-39 -103 -70 -196 -66 -200 4 -4 6 1 60 151 38 107 43
147 6 49z"/>
<path d="M2813 1810 c-27 -11 -32 -50 -7 -50 12 0 15 6 11 21 -4 16 -1 20 16
17 30 -4 34 -42 7 -61 -22 -15 -22 -15 -1 -22 25 -8 35 -38 21 -65 -12 -22
-55 -29 -47 -7 3 8 1 20 -4 28 -7 11 -11 11 -21 1 -35 -35 55 -71 93 -36 24
22 24 42 -1 69 -18 20 -19 23 -5 35 22 18 19 46 -7 64 -25 18 -25 18 -55 6z"/>
<path d="M7112 1804 c-26 -18 -29 -44 -6 -44 11 0 15 6 11 20 -4 16 0 20 19
20 19 0 24 -5 24 -24 0 -14 -9 -31 -21 -39 l-21 -15 21 -7 c25 -8 35 -38 21
-65 -15 -28 -51 -27 -47 1 3 27 -21 37 -30 13 -15 -39 69 -60 100 -26 23 25
21 55 -4 70 -19 12 -20 15 -5 31 22 24 20 47 -6 65 -12 9 -25 16 -28 16 -3 0
-16 -7 -28 -16z"/>
<path d="M2523 1803 c-13 -2 -23 -8 -23 -13 0 -4 9 -6 20 -3 19 5 20 0 20 -71
0 -70 -2 -76 -21 -76 -11 0 -17 -4 -14 -10 3 -5 26 -10 51 -10 24 0 44 5 44
10 0 6 -7 10 -15 10 -12 0 -15 16 -15 85 0 62 -3 85 -12 84 -7 -1 -23 -4 -35
-6z"/>
<path d="M6029 1759 c-80 -80 -78 -289 4 -366 16 -15 28 -23 25 -18 -2 6 -17
36 -32 68 -26 54 -28 66 -24 151 3 78 8 99 31 139 30 51 29 59 -4 26z"/>
<path d="M6407 1633 c-96 -253 -96 -254 -84 -250 7 2 31 55 54 118 22 63 55
151 71 197 17 45 27 82 23 82 -5 0 -34 -66 -64 -147z"/>
<path d="M6955 1744 c58 -86 57 -264 -4 -337 -8 -9 -11 -20 -7 -25 9 -8 29 17
57 70 44 85 31 229 -27 297 -35 42 -49 39 -19 -5z"/>
<path d="M6173 1734 c-42 -21 -63 -68 -63 -141 0 -83 28 -123 87 -123 43 0 73
39 73 95 0 57 -34 90 -85 82 -29 -5 -35 -3 -35 12 0 26 38 71 61 71 13 0 18
-6 16 -22 -1 -14 4 -23 16 -26 30 -6 22 46 -9 58 -30 12 -23 13 -61 -6z m41
-110 c16 -16 22 -87 10 -118 -9 -22 -51 -20 -64 3 -17 33 -12 89 10 111 24 24
24 24 44 4z"/>
<path d="M6558 1734 c-41 -22 -51 -84 -13 -84 18 0 28 30 14 47 -14 16 -12 18
18 27 27 9 63 -24 63 -57 0 -28 -46 -99 -89 -141 -17 -17 -31 -33 -31 -38 0
-4 33 -8 74 -8 77 0 86 5 86 51 0 25 -16 24 -23 -1 -4 -16 -14 -20 -46 -20
-23 0 -41 4 -41 9 0 4 22 29 50 54 27 25 52 57 56 71 9 39 -13 83 -48 95 -38
13 -37 14 -70 -5z"/>
<path d="M6771 1736 c-57 -31 -67 -102 -21 -148 30 -29 39 -31 83 -13 16 7 17
4 11 -21 -12 -50 -23 -64 -53 -64 -22 0 -27 4 -27 23 1 26 -27 31 -32 6 -7
-38 54 -62 99 -39 29 16 59 84 59 133 0 63 -18 105 -51 122 -34 18 -37 18 -68
1z m58 -20 c19 -22 23 -78 9 -106 -20 -37 -59 -34 -70 5 -20 72 24 145 61 101z"/>
<path d="M2400 1705 c-5 -14 -10 -33 -10 -41 0 -8 -10 -14 -25 -14 -14 0 -25
-4 -25 -10 0 -5 9 -10 20 -10 11 0 20 -1 20 -2 0 -2 -7 -28 -15 -58 -19 -71
-19 -77 5 -90 23 -13 74 9 84 36 11 28 -1 28 -19 0 -10 -14 -24 -26 -31 -26
-17 0 -18 23 -2 89 10 43 15 51 35 51 13 0 23 5 23 10 0 6 -9 10 -20 10 -17 0
-19 4 -14 28 10 42 10 44 -3 49 -7 3 -17 -7 -23 -22z"/>
<path d="M5300 1690 c-9 -33 -15 -40 -35 -40 -14 0 -25 -4 -25 -10 0 -5 10
-10 21 -10 19 0 20 -3 13 -37 -21 -103 0 -146 53 -107 15 12 29 30 31 40 2 15
-2 13 -18 -8 -31 -40 -54 -37 -46 4 17 84 27 108 46 108 10 0 22 5 25 10 3 6
-3 10 -15 10 -20 0 -21 4 -15 40 5 32 4 40 -9 40 -9 0 -19 -15 -26 -40z"/>
<path d="M5530 1685 c0 -2 48 -27 107 -55 59 -28 103 -54 97 -58 -5 -5 -53
-28 -106 -53 -54 -24 -98 -47 -98 -51 0 -5 1 -8 3 -8 6 0 239 109 245 114 3 3
-47 31 -112 61 -109 52 -136 62 -136 50z"/>
<path d="M2990 1500 c0 -11 7 -20 15 -20 18 0 19 -23 4 -52 -6 -11 -8 -22 -5
-25 11 -12 39 65 32 91 -8 32 -46 37 -46 6z"/>
<path d="M988 1343 c-9 -10 -26 -38 -38 -62 -40 -80 -27 -228 26 -291 36 -42
49 -38 20 8 -33 50 -48 144 -35 225 6 35 21 78 35 100 25 38 20 51 -8 20z"/>
<path d="M1246 1314 c27 -46 29 -56 29 -154 0 -95 -2 -109 -27 -152 -29 -51
-22 -64 11 -22 39 50 54 108 49 193 -4 66 -10 88 -34 127 -39 64 -65 71 -28 8z"/>
<path d="M809 1318 c-7 -13 -15 -36 -19 -53 -4 -21 -12 -31 -28 -33 -28 -4
-29 -22 -1 -22 15 0 19 -5 15 -17 -2 -10 -12 -56 -21 -103 -9 -47 -21 -89 -27
-95 -6 -6 -7 -4 -3 7 8 20 -20 37 -36 21 -13 -13 -2 -40 19 -48 33 -13 67 44
87 143 16 85 19 92 41 92 13 0 24 5 24 10 0 6 -10 10 -21 10 -20 0 -21 4 -15
43 4 23 12 47 18 52 8 7 9 5 5 -8 -8 -22 21 -36 33 -17 14 22 0 40 -31 40 -19
0 -32 -7 -40 -22z"/>
<path d="M1113 1273 c-6 -28 -14 -39 -31 -41 -27 -4 -30 -22 -3 -22 18 0 18
-3 4 -60 -9 -33 -13 -66 -9 -75 13 -36 96 -5 96 36 0 8 -11 1 -24 -16 -37 -45
-49 -24 -29 53 12 47 20 62 34 62 10 0 21 5 24 10 3 6 -3 10 -15 10 -18 0 -20
4 -14 40 5 32 4 40 -9 40 -9 0 -18 -14 -24 -37z"/>
<path d="M3580 1275 c-13 -16 -10 -51 5 -47 6 1 10 12 10 24 0 27 18 33 39 13
26 -26 19 -51 -31 -107 l-47 -53 54 -3 c54 -3 70 5 70 38 0 11 -3 11 -12 2 -7
-7 -26 -12 -42 -12 l-30 0 42 43 c47 48 51 68 22 97 -23 23 -62 26 -80 5z"/>
<path d="M1495 1200 c-4 -6 42 -10 129 -10 84 0 136 4 136 10 0 6 -50 10 -129
10 -76 0 -132 -4 -136 -10z"/>
<path d="M2801 1175 c-61 -69 -89 -146 -102 -273 -14 -151 22 -288 103 -386
47 -57 51 -42 8 25 -45 70 -55 101 -71 215 -20 151 16 329 86 420 34 45 16 44
-24 -1z"/>
<path d="M3355 1159 c107 -156 105 -473 -4 -635 -34 -49 -28 -58 11 -16 72 77
108 190 108 341 0 142 -38 257 -113 339 -37 40 -38 23 -2 -29z"/>
<path d="M1495 1120 c4 -6 60 -10 136 -10 79 0 129 4 129 10 0 6 -52 10 -136
10 -87 0 -133 -4 -129 -10z"/>
<path d="M2455 1104 c-18 -8 -23 -13 -12 -14 15 0 17 -10 17 -75 0 -60 -3 -75
-15 -75 -8 0 -15 -4 -15 -10 0 -5 20 -10 45 -10 25 0 45 5 45 10 0 6 -7 10
-15 10 -11 0 -15 19 -17 88 l-3 89 -30 -13z"/>
<path d="M2966 1098 c-17 -23 -13 -38 10 -38 17 0 18 12 3 27 -8 8 -5 13 12
18 16 5 26 2 36 -11 21 -29 16 -49 -27 -103 -22 -28 -40 -53 -40 -56 0 -8 100
-6 100 3 0 4 3 18 6 32 5 21 4 22 -6 8 -7 -11 -23 -18 -43 -18 l-31 0 42 43
c23 23 42 52 42 63 0 50 -76 73 -104 32z"/>
<path d="M3117 1102 c-45 -50 14 -147 61 -100 16 16 16 -2 0 -37 -12 -27 -48
-35 -48 -10 0 16 -15 20 -24 7 -9 -16 12 -34 40 -34 55 0 89 81 62 150 -11 30
-19 38 -44 40 -20 2 -36 -4 -47 -16z m63 -13 c12 -21 5 -75 -10 -84 -22 -14
-40 9 -40 49 0 24 3 46 7 49 12 13 32 7 43 -14z"/>
<path d="M4625 1110 c-5 -8 -8 -39 -6 -67 l3 -53 -32 0 c-33 0 -33 1 3 53 10
16 17 30 14 33 -5 5 -67 -87 -67 -99 0 -4 16 -7 35 -7 24 0 35 -5 35 -15 0 -8
-4 -15 -10 -15 -5 0 -10 -4 -10 -10 0 -5 16 -10 35 -10 19 0 35 5 35 10 0 6
-4 10 -10 10 -18 0 -11 30 8 30 16 1 16 1 0 14 -12 9 -18 31 -20 77 -2 46 -6
60 -13 49z"/>
<path d="M3811 978 c-5 -13 -12 -31 -15 -40 -3 -10 -15 -18 -26 -18 -11 0 -20
-4 -20 -10 0 -5 7 -10 15 -10 18 0 19 -13 3 -79 -12 -55 -2 -81 31 -81 20 0
61 40 61 59 0 8 -9 2 -21 -13 -20 -26 -49 -35 -49 -16 0 6 7 37 17 70 14 51
20 60 40 60 12 0 23 5 23 10 0 6 -9 10 -20 10 -18 0 -20 4 -15 34 8 40 -10 58
-24 24z"/>
<path d="M4128 974 c-5 -4 -8 -33 -8 -65 l0 -58 -62 -4 -63 -3 63 -2 62 -2 0
-59 c0 -81 18 -88 22 -9 l3 63 65 4 65 5 -65 5 -65 6 -5 63 c-3 35 -8 60 -12
56z"/>
<path d="M2380 845 c0 -12 17 -15 95 -15 78 0 95 3 95 15 0 12 -17 15 -95 15
-78 0 -95 -3 -95 -15z"/>
<path d="M2920 845 c0 -13 22 -15 165 -13 102 2 165 7 165 13 0 6 -63 11 -165
13 -143 2 -165 0 -165 -13z"/>
<path d="M4437 854 c-18 -19 19 -24 169 -24 139 0 164 2 164 15 0 13 -25 15
-163 15 -90 0 -167 -3 -170 -6z"/>
<path d="M2439 751 c-18 -15 -21 -22 -12 -31 14 -15 34 -4 26 15 -6 17 32 21
42 5 11 -17 -5 -49 -28 -56 -21 -7 -21 -7 6 -17 25 -8 28 -13 25 -46 -3 -31
-6 -36 -28 -36 -20 0 -24 4 -22 23 2 15 -2 22 -12 22 -19 0 -21 -31 -4 -48 16
-16 60 -15 80 1 28 22 29 47 3 73 -13 13 -20 24 -14 24 5 0 15 12 21 26 11 23
10 29 -11 45 -29 24 -43 24 -72 0z"/>
<path d="M3073 758 c-65 -32 -57 -188 11 -188 29 0 59 32 59 65 0 35 -32 68
-60 62 -26 -5 -32 20 -11 41 17 17 38 15 38 -3 0 -17 16 -20 25 -6 5 10 -21
42 -33 40 -4 0 -17 -5 -29 -11z m32 -124 c0 -42 -3 -49 -20 -49 -16 0 -21 8
-23 38 -3 39 12 71 32 64 6 -2 11 -26 11 -53z"/>
<path d="M4504 760 c-25 -10 -39 -39 -25 -53 14 -14 30 0 24 23 -4 15 0 20 15
20 27 0 45 -25 38 -53 -3 -12 -21 -41 -41 -64 -19 -23 -35 -46 -35 -52 0 -6
20 -11 49 -11 44 0 49 2 55 26 8 30 0 46 -10 20 -4 -10 -17 -16 -35 -16 -16 0
-29 2 -29 4 0 2 18 22 40 44 52 52 53 84 3 111 -25 13 -21 12 -49 1z"/>
<path d="M4640 750 c-28 -28 -27 -85 1 -101 12 -6 31 -9 44 -7 18 4 21 1 17
-16 -11 -45 -52 -65 -52 -26 0 11 -5 20 -11 20 -6 0 -9 -10 -7 -22 4 -29 43
-36 69 -12 59 53 38 184 -30 184 -6 0 -20 -9 -31 -20z m63 -20 c9 -34 -7 -75
-31 -78 -20 -3 -22 1 -22 41 0 24 3 47 7 50 14 14 41 6 46 -13z"/>
</g>
</svg>
