<?xml version="1.0" encoding="utf-8"?>
<!-- Generator: Adobe Illustrator 22.0.1, SVG Export Plug-In . SVG Version: 6.00 Build 0)  -->
<svg version="1.1" id="Слой_1" xmlns="http://www.w3.org/2000/svg" xmlns:xlink="http://www.w3.org/1999/xlink" x="0px" y="0px"
	 viewBox="0 0 84 73" style="enable-background:new 0 0 84 73;" xml:space="preserve">
<style type="text/css">
	.st0{fill:#2566F9;}
</style>
<path class="st0" d="M19.8,44.3c1.8,0,3.3,1.5,3.3,3.3v6.1c0,2.1,1.7,3.8,3.8,3.8H57c2.1,0,3.8-1.7,3.8-3.8v-6.1
	c0-1.8,1.5-3.3,3.3-3.3s3.3,1.5,3.3,3.3v6.1c0,5.8-4.7,10.5-10.5,10.5H27c-5.8,0-10.5-4.7-10.5-10.5v-6.1
	C16.4,45.8,17.9,44.3,19.8,44.3z"/>
<path class="st0" d="M39.6,47.8c1.3,1.3,3.5,1.3,4.8,0l11.8-11.6c1.3-1.3,1.3-3.5,0-4.8c-1.3-1.3-3.4-1.3-4.7,0l-6.2,6.1l0-25.3
	c0-1.9-1.5-3.4-3.4-3.4c-1.9,0-3.4,1.5-3.4,3.4v25.3l-6.2-6.1c-1.3-1.3-3.4-1.3-4.7,0c-1.3,1.3-1.3,3.5,0,4.8L39.6,47.8z"/>
</svg>
