<?xml version="1.0" encoding="utf-8"?>
<!-- Generator: Adobe Illustrator 22.0.1, SVG Export Plug-In . SVG Version: 6.00 Build 0)  -->
<svg version="1.1" id="Слой_1" xmlns="http://www.w3.org/2000/svg" xmlns:xlink="http://www.w3.org/1999/xlink" x="0px" y="0px"
	 viewBox="0 0 84 73" style="enable-background:new 0 0 84 73;" xml:space="preserve">
<style type="text/css">
	.st0{fill:#94BCF9;}
	.st1{fill:none;stroke:#272B35;stroke-width:3;stroke-linecap:round;stroke-linejoin:round;}
	.st2{fill:#272B35;}
</style>
<path class="st0" d="M0,21c0-4.4,3.6-8,8-8h13c3.7,0,7.2,1.3,10.1,3.6l8.2,6.7c1.4,1.2,3.2,1.8,5,1.8H76c4.4,0,8,3.6,8,8v26
	c0,4.4-3.6,8-8,8H8c-4.4,0-8-3.6-8-8V21z"/>
<path class="st1" d="M25,54.5h34c2.5,0,4.5-2,4.5-4.5V20.1c0-1.3-0.5-2.5-1.5-3.3l-8.8-8.1c-0.8-0.8-1.9-1.2-3-1.2H25
	c-2.5,0-4.5,2-4.5,4.5v38C20.5,52.5,22.5,54.5,25,54.5z"/>
<path class="st2" d="M32.5,36c0.8,0,1.5,0.7,1.5,1.5v2.8c0,1,0.8,1.7,1.7,1.7h13.5c1,0,1.7-0.8,1.7-1.7v-2.8c0-0.8,0.7-1.5,1.5-1.5
	s1.5,0.7,1.5,1.5v2.8c0,2.6-2.1,4.7-4.7,4.7H35.7c-2.6,0-4.7-2.1-4.7-4.7v-2.8C31,36.7,31.7,36,32.5,36z"/>
<path class="st2" d="M43.6,22.4c-0.6-0.6-1.6-0.6-2.1,0l-5.3,5.2c-0.6,0.6-0.6,1.6,0,2.1c0.6,0.6,1.5,0.6,2.1,0l2.8-2.7l0,11.4
	c0,0.8,0.7,1.5,1.5,1.5c0.8,0,1.5-0.7,1.5-1.5V27.1l2.8,2.7c0.6,0.6,1.5,0.6,2.1,0c0.6-0.6,0.6-1.6,0-2.1L43.6,22.4z"/>
<path class="st2" d="M62,19h-8c-1.7,0-3-1.3-3-3V9h-3v7c0,3.3,2.7,6,6,6h8V19z"/>
</svg>
